<?xml version="1.0" standalone="no"?>
<!DOCTYPE svg PUBLIC "-//W3C//DTD SVG 20010904//EN"
 "http://www.w3.org/TR/2001/REC-SVG-20010904/DTD/svg10.dtd">
<svg version="1.0" xmlns="http://www.w3.org/2000/svg"
 width="300.000000pt" height="300.000000pt" viewBox="0 0 300.000000 300.000000"
 preserveAspectRatio="xMidYMid meet">

<g transform="translate(0.000000,300.000000) scale(0.100000,-0.100000)"
fill="#000000" stroke="none">
<path d="M0 1500 l0 -1500 1500 0 1500 0 0 1500 0 1500 -1500 0 -1500 0 0
-1500z m1828 780 l327 -221 5 -256 c4 -219 3 -259 -10 -274 -8 -9 -85 -64
-170 -121 -85 -58 -227 -154 -315 -213 -88 -60 -165 -108 -171 -108 -5 0 -46
24 -90 55 -43 30 -190 130 -326 222 l-248 167 0 262 0 262 328 222 c180 122
331 222 335 223 4 0 155 -99 335 -220z m542 -1415 c0 -68 9 -91 25 -65 11 18
74 29 110 19 86 -24 130 -110 105 -207 -6 -26 -19 -55 -28 -66 -45 -49 -139
-62 -186 -25 l-26 20 0 -20 c0 -18 -6 -21 -50 -21 l-50 0 0 220 0 220 50 0 50
0 0 -75z m-1701 31 c81 -43 116 -109 109 -206 -5 -75 -42 -130 -107 -162 -39
-19 -65 -24 -168 -26 l-123 -4 0 212 0 212 128 -4 c98 -3 135 -8 161 -22z
m1001 -141 l0 -165 90 0 90 0 0 -45 0 -45 -140 0 -140 0 0 210 0 210 50 0 50
0 0 -165z m-254 65 c11 0 38 -15 59 -33 l37 -33 -36 -19 c-30 -16 -40 -18 -56
-7 -47 29 -103 8 -116 -44 -8 -30 1 -68 22 -88 20 -21 73 -20 95 0 17 15 21
15 54 -6 35 -22 36 -23 18 -43 -26 -29 -76 -47 -130 -47 -104 0 -168 69 -160
171 3 31 12 68 22 82 30 46 103 81 150 71 11 -2 29 -4 41 -4z m722 -17 c39
-24 52 -72 52 -193 l0 -110 -50 0 c-38 0 -50 4 -50 15 0 14 -3 14 -30 0 -34
-18 -99 -20 -133 -4 -50 23 -62 100 -23 145 21 25 32 28 101 33 82 6 98 17 69
46 -17 17 -75 17 -129 0 -16 -5 -23 0 -32 25 -11 29 -10 32 15 41 77 30 165
31 210 2z m-1055 1 c83 -40 111 -163 53 -239 -35 -45 -79 -65 -146 -65 -104 0
-170 62 -170 161 0 64 24 110 72 139 41 25 142 27 191 4z"/>
<path d="M1314 2336 c-423 -284 -433 -291 -421 -302 26 -25 318 -215 326 -212
4 2 65 41 134 88 l127 85 0 217 c0 119 -3 219 -7 221 -5 3 -76 -41 -159 -97z"/>
<path d="M1510 2224 c0 -121 4 -224 8 -229 10 -14 249 -175 259 -175 10 0 299
194 320 214 9 8 -19 32 -115 96 -69 47 -198 134 -286 194 -88 59 -166 111
-173 113 -10 4 -13 -41 -13 -213z"/>
<path d="M860 1782 c0 -196 2 -221 18 -235 9 -8 69 -50 132 -92 63 -43 190
-129 282 -191 91 -63 171 -114 177 -114 8 0 11 69 11 220 l0 219 -131 88 c-72
48 -137 93 -143 98 -18 16 -334 225 -340 225 -3 0 -6 -98 -6 -218z"/>
<path d="M1813 1795 l-302 -205 -1 -214 c0 -135 3 -217 9 -221 6 -3 82 42 168
101 87 59 222 150 301 203 l142 95 0 223 c0 123 -3 223 -7 223 -5 0 -144 -93
-310 -205z"/>
<path d="M1372 1877 c-92 -62 -118 -85 -109 -93 19 -18 225 -154 232 -154 10
0 233 148 239 159 5 7 -66 58 -215 154 -25 17 -26 16 -147 -66z"/>
<path d="M2395 725 c-31 -30 -34 -92 -6 -123 23 -27 81 -30 103 -4 37 42 27
120 -18 141 -37 16 -52 14 -79 -14z"/>
<path d="M490 836 c-1 -3 -1 -61 -1 -128 l0 -123 62 1 c57 1 65 4 90 32 15 17
31 46 34 64 8 44 -14 107 -46 130 -24 18 -139 38 -139 24z"/>
<path d="M1980 625 c-6 -8 -9 -23 -5 -34 16 -53 114 -25 115 32 0 14 -9 17
-49 17 -30 0 -53 -5 -61 -15z"/>
<path d="M973 742 c-31 -5 -53 -39 -53 -83 0 -49 28 -82 69 -82 46 0 74 31 74
82 0 61 -34 92 -90 83z"/>
</g>
</svg>
